<mxfile host="app.diagrams.net" modified="2024-04-07T06:18:41.544Z" agent="Mozilla/5.0 (Macintosh; Intel Mac OS X 10_15_7) AppleWebKit/537.36 (KHTML, like Gecko) Chrome/123.0.0.0 Safari/537.36" etag="gys33EfPYEfAaHsBVtqu" version="24.2.2" type="device">
  <diagram name="Page-1" id="tBEgCQktO8Fiyp8cqtbf">
    <mxGraphModel dx="1166" dy="770" grid="1" gridSize="10" guides="1" tooltips="1" connect="1" arrows="1" fold="1" page="1" pageScale="1" pageWidth="850" pageHeight="1100" math="0" shadow="0">
      <root>
        <mxCell id="0" />
        <mxCell id="1" parent="0" />
        <mxCell id="6-sfm3AnqvI6F5LYvgDm-4" style="edgeStyle=orthogonalEdgeStyle;rounded=0;orthogonalLoop=1;jettySize=auto;html=1;endArrow=cross;endFill=0;" parent="1" source="6-sfm3AnqvI6F5LYvgDm-1" edge="1">
          <mxGeometry relative="1" as="geometry">
            <mxPoint x="140" y="430" as="targetPoint" />
          </mxGeometry>
        </mxCell>
        <mxCell id="6-sfm3AnqvI6F5LYvgDm-1" value="Pharmacy Manager" style="rounded=0;whiteSpace=wrap;html=1;" parent="1" vertex="1">
          <mxGeometry x="80" y="90" width="120" height="60" as="geometry" />
        </mxCell>
        <mxCell id="6-sfm3AnqvI6F5LYvgDm-2" value="POS System" style="rounded=0;whiteSpace=wrap;html=1;" parent="1" vertex="1">
          <mxGeometry x="400" y="90" width="120" height="60" as="geometry" />
        </mxCell>
        <mxCell id="6-sfm3AnqvI6F5LYvgDm-7" value="" style="endArrow=classic;html=1;rounded=0;" parent="1" target="6-sfm3AnqvI6F5LYvgDm-10" edge="1">
          <mxGeometry width="50" height="50" relative="1" as="geometry">
            <mxPoint x="140" y="190" as="sourcePoint" />
            <mxPoint x="730" y="190" as="targetPoint" />
          </mxGeometry>
        </mxCell>
        <mxCell id="6-sfm3AnqvI6F5LYvgDm-8" value="Trigger Report Generation request" style="edgeLabel;html=1;align=center;verticalAlign=middle;resizable=0;points=[];" parent="6-sfm3AnqvI6F5LYvgDm-7" vertex="1" connectable="0">
          <mxGeometry x="-0.0575" y="1" relative="1" as="geometry">
            <mxPoint x="11" as="offset" />
          </mxGeometry>
        </mxCell>
        <mxCell id="6-sfm3AnqvI6F5LYvgDm-11" value="" style="edgeStyle=orthogonalEdgeStyle;rounded=0;orthogonalLoop=1;jettySize=auto;html=1;endArrow=none;endFill=0;" parent="1" source="6-sfm3AnqvI6F5LYvgDm-2" target="6-sfm3AnqvI6F5LYvgDm-10" edge="1">
          <mxGeometry relative="1" as="geometry">
            <mxPoint x="460" y="751.6000366210938" as="targetPoint" />
            <mxPoint x="460" y="150" as="sourcePoint" />
            <Array as="points">
              <mxPoint x="460" y="210" />
              <mxPoint x="460" y="210" />
            </Array>
          </mxGeometry>
        </mxCell>
        <mxCell id="6-sfm3AnqvI6F5LYvgDm-16" value="" style="endArrow=none;html=1;rounded=0;endFill=0;startArrow=classic;startFill=1;" parent="1" target="6-sfm3AnqvI6F5LYvgDm-10" edge="1">
          <mxGeometry width="50" height="50" relative="1" as="geometry">
            <mxPoint x="140" y="240" as="sourcePoint" />
            <mxPoint x="500" y="270" as="targetPoint" />
          </mxGeometry>
        </mxCell>
        <mxCell id="6-sfm3AnqvI6F5LYvgDm-17" value="Display report response" style="edgeLabel;html=1;align=center;verticalAlign=middle;resizable=0;points=[];" parent="6-sfm3AnqvI6F5LYvgDm-16" vertex="1" connectable="0">
          <mxGeometry x="0.0019" y="2" relative="1" as="geometry">
            <mxPoint as="offset" />
          </mxGeometry>
        </mxCell>
        <mxCell id="shoroE4JtWazDhD43DqI-4" value="" style="endArrow=block;html=1;rounded=0;endFill=1;" edge="1" parent="1">
          <mxGeometry width="50" height="50" relative="1" as="geometry">
            <mxPoint x="465" y="331" as="sourcePoint" />
            <mxPoint x="465" y="301" as="targetPoint" />
            <Array as="points">
              <mxPoint x="500" y="331" />
              <mxPoint x="500" y="301" />
              <mxPoint x="490" y="301" />
              <mxPoint x="480" y="301" />
            </Array>
          </mxGeometry>
        </mxCell>
        <mxCell id="shoroE4JtWazDhD43DqI-6" value="Generate report&amp;nbsp;&lt;div&gt;end of the day&lt;/div&gt;" style="edgeLabel;html=1;align=center;verticalAlign=middle;resizable=0;points=[];" vertex="1" connectable="0" parent="shoroE4JtWazDhD43DqI-4">
          <mxGeometry x="0.1319" y="2" relative="1" as="geometry">
            <mxPoint x="52" y="12" as="offset" />
          </mxGeometry>
        </mxCell>
        <mxCell id="shoroE4JtWazDhD43DqI-8" value="Inventory" style="rounded=0;whiteSpace=wrap;html=1;" vertex="1" parent="1">
          <mxGeometry x="615" y="90" width="120" height="60" as="geometry" />
        </mxCell>
        <mxCell id="shoroE4JtWazDhD43DqI-9" value="" style="endArrow=classic;html=1;rounded=0;" edge="1" parent="1" source="6-sfm3AnqvI6F5LYvgDm-10" target="shoroE4JtWazDhD43DqI-7">
          <mxGeometry width="50" height="50" relative="1" as="geometry">
            <mxPoint x="470" y="200" as="sourcePoint" />
            <mxPoint x="680" y="200.0000000000001" as="targetPoint" />
            <Array as="points">
              <mxPoint x="670" y="190" />
            </Array>
          </mxGeometry>
        </mxCell>
        <mxCell id="shoroE4JtWazDhD43DqI-10" value="request data&amp;nbsp;" style="edgeLabel;html=1;align=center;verticalAlign=middle;resizable=0;points=[];" vertex="1" connectable="0" parent="shoroE4JtWazDhD43DqI-9">
          <mxGeometry x="-0.0575" y="1" relative="1" as="geometry">
            <mxPoint x="11" y="-1" as="offset" />
          </mxGeometry>
        </mxCell>
        <mxCell id="shoroE4JtWazDhD43DqI-11" value="" style="endArrow=none;html=1;rounded=0;startArrow=classic;startFill=1;endFill=0;" edge="1" parent="1" source="6-sfm3AnqvI6F5LYvgDm-10" target="shoroE4JtWazDhD43DqI-7">
          <mxGeometry width="50" height="50" relative="1" as="geometry">
            <mxPoint x="465" y="220" as="sourcePoint" />
            <mxPoint x="690" y="220" as="targetPoint" />
            <Array as="points">
              <mxPoint x="670" y="220" />
            </Array>
          </mxGeometry>
        </mxCell>
        <mxCell id="shoroE4JtWazDhD43DqI-12" value="response data" style="edgeLabel;html=1;align=center;verticalAlign=middle;resizable=0;points=[];" vertex="1" connectable="0" parent="shoroE4JtWazDhD43DqI-11">
          <mxGeometry x="-0.0575" y="1" relative="1" as="geometry">
            <mxPoint x="11" y="-1" as="offset" />
          </mxGeometry>
        </mxCell>
        <mxCell id="shoroE4JtWazDhD43DqI-13" style="edgeStyle=orthogonalEdgeStyle;rounded=0;orthogonalLoop=1;jettySize=auto;html=1;endArrow=cross;endFill=0;" edge="1" parent="1">
          <mxGeometry relative="1" as="geometry">
            <mxPoint x="460" y="430" as="targetPoint" />
            <mxPoint x="459.66" y="190" as="sourcePoint" />
          </mxGeometry>
        </mxCell>
        <mxCell id="shoroE4JtWazDhD43DqI-14" style="edgeStyle=orthogonalEdgeStyle;rounded=0;orthogonalLoop=1;jettySize=auto;html=1;endArrow=cross;endFill=0;" edge="1" parent="1">
          <mxGeometry relative="1" as="geometry">
            <mxPoint x="675" y="430" as="targetPoint" />
            <mxPoint x="694.6600000000001" y="150" as="sourcePoint" />
            <Array as="points">
              <mxPoint x="675" y="150" />
              <mxPoint x="675" y="430" />
            </Array>
          </mxGeometry>
        </mxCell>
        <mxCell id="6-sfm3AnqvI6F5LYvgDm-10" value="" style="html=1;points=[[0,0,0,0,5],[0,1,0,0,-5],[1,0,0,0,5],[1,1,0,0,-5]];perimeter=orthogonalPerimeter;outlineConnect=0;targetShapes=umlLifeline;portConstraint=eastwest;newEdgeStyle={&quot;curved&quot;:0,&quot;rounded&quot;:0};" parent="1" vertex="1">
          <mxGeometry x="455" y="180" width="10" height="190" as="geometry" />
        </mxCell>
        <mxCell id="shoroE4JtWazDhD43DqI-7" value="" style="html=1;points=[[0,0,0,0,5],[0,1,0,0,-5],[1,0,0,0,5],[1,1,0,0,-5]];perimeter=orthogonalPerimeter;outlineConnect=0;targetShapes=umlLifeline;portConstraint=eastwest;newEdgeStyle={&quot;curved&quot;:0,&quot;rounded&quot;:0};" vertex="1" parent="1">
          <mxGeometry x="670" y="170" width="10" height="190" as="geometry" />
        </mxCell>
      </root>
    </mxGraphModel>
  </diagram>
</mxfile>
